<mxfile host="app.diagrams.net" modified="2023-07-27T06:27:58.741Z" agent="Mozilla/5.0 (Windows NT 10.0; Win64; x64) AppleWebKit/537.36 (KHTML, like Gecko) Chrome/115.0.0.0 Safari/537.36 Edg/115.0.1901.183" etag="rCKSnCOnInk7T6yetgeX" version="21.6.5" type="github">
  <diagram name="Trang-1" id="DMHt6Bj8uNAS2uQc6lcl">
    <mxGraphModel dx="1434" dy="788" grid="1" gridSize="10" guides="1" tooltips="1" connect="1" arrows="1" fold="1" page="1" pageScale="1" pageWidth="827" pageHeight="1169" math="0" shadow="0">
      <root>
        <mxCell id="0" />
        <mxCell id="1" parent="0" />
        <mxCell id="AXXRzCusAXLwxcy1-cfK-5" style="edgeStyle=orthogonalEdgeStyle;rounded=0;orthogonalLoop=1;jettySize=auto;html=1;entryX=0;entryY=0.5;entryDx=0;entryDy=0;startArrow=classic;startFill=1;exitX=1;exitY=0.5;exitDx=0;exitDy=0;" edge="1" parent="1" source="AXXRzCusAXLwxcy1-cfK-1" target="AXXRzCusAXLwxcy1-cfK-3">
          <mxGeometry relative="1" as="geometry">
            <mxPoint x="460" y="350" as="sourcePoint" />
            <mxPoint x="610" y="340" as="targetPoint" />
            <Array as="points" />
          </mxGeometry>
        </mxCell>
        <mxCell id="AXXRzCusAXLwxcy1-cfK-31" style="edgeStyle=orthogonalEdgeStyle;rounded=0;orthogonalLoop=1;jettySize=auto;html=1;entryX=1;entryY=0.5;entryDx=0;entryDy=0;" edge="1" parent="1" source="AXXRzCusAXLwxcy1-cfK-1" target="AXXRzCusAXLwxcy1-cfK-10">
          <mxGeometry relative="1" as="geometry">
            <Array as="points">
              <mxPoint x="414" y="430" />
            </Array>
          </mxGeometry>
        </mxCell>
        <mxCell id="AXXRzCusAXLwxcy1-cfK-1" value="NodeMCU 1" style="rounded=1;whiteSpace=wrap;html=1;" vertex="1" parent="1">
          <mxGeometry x="354" y="320" width="120" height="60" as="geometry" />
        </mxCell>
        <mxCell id="AXXRzCusAXLwxcy1-cfK-2" value="Firebase" style="shape=cylinder3;whiteSpace=wrap;html=1;boundedLbl=1;backgroundOutline=1;size=15;" vertex="1" parent="1">
          <mxGeometry x="575" y="110" width="90" height="130" as="geometry" />
        </mxCell>
        <mxCell id="AXXRzCusAXLwxcy1-cfK-4" style="edgeStyle=orthogonalEdgeStyle;rounded=0;orthogonalLoop=1;jettySize=auto;html=1;" edge="1" parent="1" source="AXXRzCusAXLwxcy1-cfK-3" target="AXXRzCusAXLwxcy1-cfK-2">
          <mxGeometry relative="1" as="geometry" />
        </mxCell>
        <mxCell id="AXXRzCusAXLwxcy1-cfK-3" value="Server" style="rounded=1;whiteSpace=wrap;html=1;" vertex="1" parent="1">
          <mxGeometry x="560" y="320" width="120" height="60" as="geometry" />
        </mxCell>
        <mxCell id="AXXRzCusAXLwxcy1-cfK-23" style="edgeStyle=orthogonalEdgeStyle;rounded=0;orthogonalLoop=1;jettySize=auto;html=1;entryX=0.5;entryY=0;entryDx=0;entryDy=0;" edge="1" parent="1" source="AXXRzCusAXLwxcy1-cfK-8" target="AXXRzCusAXLwxcy1-cfK-1">
          <mxGeometry relative="1" as="geometry" />
        </mxCell>
        <mxCell id="AXXRzCusAXLwxcy1-cfK-8" value="Light Sensor" style="rounded=1;whiteSpace=wrap;html=1;" vertex="1" parent="1">
          <mxGeometry x="160" y="250" width="120" height="60" as="geometry" />
        </mxCell>
        <mxCell id="AXXRzCusAXLwxcy1-cfK-12" style="edgeStyle=orthogonalEdgeStyle;rounded=0;orthogonalLoop=1;jettySize=auto;html=1;entryX=0;entryY=0.5;entryDx=0;entryDy=0;" edge="1" parent="1" source="AXXRzCusAXLwxcy1-cfK-9" target="AXXRzCusAXLwxcy1-cfK-1">
          <mxGeometry relative="1" as="geometry" />
        </mxCell>
        <mxCell id="AXXRzCusAXLwxcy1-cfK-9" value="Temperature and Humidity Sensor" style="rounded=1;whiteSpace=wrap;html=1;" vertex="1" parent="1">
          <mxGeometry x="160" y="320" width="120" height="60" as="geometry" />
        </mxCell>
        <mxCell id="AXXRzCusAXLwxcy1-cfK-10" value="Relay" style="rounded=1;whiteSpace=wrap;html=1;" vertex="1" parent="1">
          <mxGeometry x="160" y="400" width="120" height="60" as="geometry" />
        </mxCell>
        <mxCell id="AXXRzCusAXLwxcy1-cfK-37" style="edgeStyle=orthogonalEdgeStyle;rounded=0;orthogonalLoop=1;jettySize=auto;html=1;entryX=0.75;entryY=1;entryDx=0;entryDy=0;fillColor=#f8cecc;strokeColor=#b85450;" edge="1" parent="1" source="AXXRzCusAXLwxcy1-cfK-14" target="AXXRzCusAXLwxcy1-cfK-3">
          <mxGeometry relative="1" as="geometry" />
        </mxCell>
        <mxCell id="AXXRzCusAXLwxcy1-cfK-38" style="edgeStyle=orthogonalEdgeStyle;rounded=0;orthogonalLoop=1;jettySize=auto;html=1;entryX=1;entryY=0.75;entryDx=0;entryDy=0;fillColor=#f8cecc;strokeColor=#b85450;" edge="1" parent="1" source="AXXRzCusAXLwxcy1-cfK-14" target="AXXRzCusAXLwxcy1-cfK-1">
          <mxGeometry relative="1" as="geometry">
            <Array as="points">
              <mxPoint x="530" y="700" />
              <mxPoint x="530" y="365" />
            </Array>
          </mxGeometry>
        </mxCell>
        <mxCell id="AXXRzCusAXLwxcy1-cfK-41" style="edgeStyle=orthogonalEdgeStyle;rounded=0;orthogonalLoop=1;jettySize=auto;html=1;entryX=0.75;entryY=1;entryDx=0;entryDy=0;fillColor=#f8cecc;strokeColor=#b85450;" edge="1" parent="1" source="AXXRzCusAXLwxcy1-cfK-14" target="AXXRzCusAXLwxcy1-cfK-27">
          <mxGeometry relative="1" as="geometry" />
        </mxCell>
        <mxCell id="AXXRzCusAXLwxcy1-cfK-42" style="edgeStyle=orthogonalEdgeStyle;rounded=0;orthogonalLoop=1;jettySize=auto;html=1;entryX=1;entryY=0.75;entryDx=0;entryDy=0;fillColor=#f8cecc;strokeColor=#b85450;" edge="1" parent="1" source="AXXRzCusAXLwxcy1-cfK-14" target="AXXRzCusAXLwxcy1-cfK-10">
          <mxGeometry relative="1" as="geometry">
            <Array as="points">
              <mxPoint x="320" y="700" />
              <mxPoint x="320" y="445" />
            </Array>
          </mxGeometry>
        </mxCell>
        <mxCell id="AXXRzCusAXLwxcy1-cfK-14" value="Power Supply" style="rounded=1;whiteSpace=wrap;html=1;" vertex="1" parent="1">
          <mxGeometry x="400" y="670" width="120" height="60" as="geometry" />
        </mxCell>
        <mxCell id="AXXRzCusAXLwxcy1-cfK-28" style="edgeStyle=orthogonalEdgeStyle;rounded=0;orthogonalLoop=1;jettySize=auto;html=1;entryX=0.5;entryY=1;entryDx=0;entryDy=0;startArrow=classic;startFill=1;" edge="1" parent="1" source="AXXRzCusAXLwxcy1-cfK-27" target="AXXRzCusAXLwxcy1-cfK-3">
          <mxGeometry relative="1" as="geometry" />
        </mxCell>
        <mxCell id="AXXRzCusAXLwxcy1-cfK-32" style="edgeStyle=orthogonalEdgeStyle;rounded=0;orthogonalLoop=1;jettySize=auto;html=1;entryX=1;entryY=0.5;entryDx=0;entryDy=0;" edge="1" parent="1" source="AXXRzCusAXLwxcy1-cfK-27" target="AXXRzCusAXLwxcy1-cfK-10">
          <mxGeometry relative="1" as="geometry">
            <Array as="points">
              <mxPoint x="414" y="430" />
            </Array>
          </mxGeometry>
        </mxCell>
        <mxCell id="AXXRzCusAXLwxcy1-cfK-27" value="NodeMCU 2" style="rounded=1;whiteSpace=wrap;html=1;" vertex="1" parent="1">
          <mxGeometry x="354" y="480" width="120" height="60" as="geometry" />
        </mxCell>
        <mxCell id="AXXRzCusAXLwxcy1-cfK-33" style="edgeStyle=orthogonalEdgeStyle;rounded=0;orthogonalLoop=1;jettySize=auto;html=1;entryX=0;entryY=0.5;entryDx=0;entryDy=0;" edge="1" parent="1" source="AXXRzCusAXLwxcy1-cfK-29" target="AXXRzCusAXLwxcy1-cfK-27">
          <mxGeometry relative="1" as="geometry" />
        </mxCell>
        <mxCell id="AXXRzCusAXLwxcy1-cfK-29" value="Temperature and Humidity Sensor" style="rounded=1;whiteSpace=wrap;html=1;" vertex="1" parent="1">
          <mxGeometry x="160" y="480" width="120" height="60" as="geometry" />
        </mxCell>
        <mxCell id="AXXRzCusAXLwxcy1-cfK-36" style="edgeStyle=orthogonalEdgeStyle;rounded=0;orthogonalLoop=1;jettySize=auto;html=1;entryX=0.5;entryY=1;entryDx=0;entryDy=0;" edge="1" parent="1" source="AXXRzCusAXLwxcy1-cfK-30" target="AXXRzCusAXLwxcy1-cfK-27">
          <mxGeometry relative="1" as="geometry" />
        </mxCell>
        <mxCell id="AXXRzCusAXLwxcy1-cfK-30" value="soil moisture sensor" style="rounded=1;whiteSpace=wrap;html=1;" vertex="1" parent="1">
          <mxGeometry x="160" y="560" width="120" height="60" as="geometry" />
        </mxCell>
      </root>
    </mxGraphModel>
  </diagram>
</mxfile>
